<svg id="Layer_1" data-name="Layer 1" xmlns="http://www.w3.org/2000/svg" viewBox="0 0 305.87 84.77"><defs><style>.cls-1{fill:#293c8f;}.cls-2,.cls-4{fill:#cc952b;}.cls-3{fill:#fff;}.cls-4{stroke:#fff;stroke-miterlimit:10;}</style></defs><path class="cls-1" d="M48.46,16H26.39a3.81,3.81,0,0,0-4,3.13,7.57,7.57,0,0,0-.11,1.51V53.7c.67-.71,1.35-1.42,2.05-2.12V20.66a6.34,6.34,0,0,1,.05-1.07,1.59,1.59,0,0,1,1.54-1.45c.45,0,.9,0,1.35,0h21a2.23,2.23,0,0,1,2.4,2.38V32.08c.67-.37,1.35-.72,2-1.08,0-3.58,0-7.16,0-10.73A4.31,4.31,0,0,0,48.46,16ZM50.7,43.2V56.13H36q-1,1-2,2.13h18.8V41.7C52.05,42.19,51.37,42.69,50.7,43.2Z"/><path class="cls-1" d="M26.68,21.71v7.77h21.6V21.71Zm11.73,5.88a4.6,4.6,0,0,1-1.06,0v-2.2l-.82,0a1.63,1.63,0,0,1,0-.76c.54-.05,1-.23,1.06-.84a2.81,2.81,0,0,1,.82,0Zm4.35,0H39.61A1.34,1.34,0,0,1,40,26.55a3.85,3.85,0,0,1,.89-.72l.42-.27c.26-.16.46-.36.35-.7a.38.38,0,0,0-.43-.25c-.36,0-.48.26-.52.57,0,.05,0,.1-.05.18h-.88a1.31,1.31,0,0,1,1.09-1.61,2.27,2.27,0,0,1,.9,0,1.07,1.07,0,0,1,.93.77,1.34,1.34,0,0,1-.32,1.33c-.31.32-.74.48-1.05.83h1.44A3,3,0,0,1,42.76,27.6Zm3.49-.89a1.17,1.17,0,0,1-1,.91,2.2,2.2,0,0,1-1.41-.09,1.18,1.18,0,0,1-.71-1.34,3.24,3.24,0,0,1,.88,0c.23.56.44.72.82.6s.34-.35.27-.61-.46-.17-.69-.21a1.53,1.53,0,0,1,0-.67c.25-.13.69.11.76-.37,0-.19-.11-.29-.29-.34a.56.56,0,0,0-.72.45,4.4,4.4,0,0,1-.89,0c-.07-.85.68-1.43,1.67-1.31.8.09,1.23.51,1.21,1.13a.9.9,0,0,1-.4.7A1,1,0,0,1,46.25,26.71Z"/><path class="cls-1" d="M26.7,35.15V32.56h9.54v2.59Z"/><polygon class="cls-1" points="48.28 33.42 48.28 32.56 38.74 32.56 38.74 35.15 45.34 35.15 48.28 33.42"/><path class="cls-1" d="M42.26,50.12V53H39.12C40.15,52,41.19,51.07,42.26,50.12Z"/><path class="cls-1" d="M30.65,43.25v2.47c-.61.51-1.2,1-1.79,1.55h-2v-4Z"/><path class="cls-1" d="M33.65,43.25l-1.12.9v-.9Z"/><path class="cls-1" d="M48.19,45.13v2.15H45.55C46.42,46.56,47.3,45.84,48.19,45.13Z"/><path class="cls-1" d="M44.38,53V49H48.2v4Z"/><path class="cls-1" d="M26.82,37.5h3.81v4H26.82Z"/><rect class="cls-1" x="32.52" y="37.51" width="3.82" height="4.02"/><path class="cls-1" d="M41.61,37.51c-1.07.71-2.13,1.43-3.17,2.16V37.51Z"/><path class="cls-2" d="M58.61,8.26V28.14c-1,.44-1.92.89-2.89,1.37V11.15H19V57.38q-1.44,1.69-2.82,3.45l-.07-.07v-40H8.83V55.12c-1-.64-1.94-1.22-2.89-1.77V17.87H16.09V8.26Z"/><path class="cls-1" d="M58.61,37.65V66.6H48.47v9.62H19.89c.63-1,1.28-2,1.94-2.9H45.57V66.6H26.76c.77-1,1.55-1.94,2.34-2.89H55.72V39.57C56.67,38.92,57.64,38.28,58.61,37.65Z"/><path class="cls-2" d="M65.84,30.29a129.9,129.9,0,0,0-13.59,8Q51,39.1,49.82,40c-.85.6-1.68,1.21-2.5,1.82-.58.43-1.14.86-1.71,1.3s-1.32,1-2,1.57l-.19.16c-.62.5-1.24,1-1.85,1.54-.42.35-.84.71-1.25,1.08-.63.55-1.25,1.1-1.86,1.67-.3.27-.6.54-.89.82-.54.5-1.07,1-1.59,1.52l-.62.61c-.62.61-1.23,1.22-1.83,1.85L32.51,55c-.85.9-1.69,1.82-2.51,2.76-.54.61-1.08,1.24-1.61,1.87-1.31,1.56-2.58,3.15-3.81,4.79-.63.84-1.25,1.69-1.86,2.54-1.36,1.91-2.66,3.87-3.92,5.89-.52.83-1,1.67-1.53,2.53h-.12c-.44-.83-.9-1.64-1.37-2.44a69.08,69.08,0,0,0-5.36-7.78Q9.16,63.57,7.84,62c-1.69-1.95-3.46-3.84-5.27-5.69C4.33,57.15,6.06,58,7.74,59c.86.49,1.7,1,2.53,1.54a37.12,37.12,0,0,1,6.38,5.18L17,66c.68-1,1.38-2,2.09-2.93q1.32-1.77,2.71-3.45c.56-.67,1.12-1.33,1.7-2,.72-.83,1.46-1.64,2.21-2.43q1.42-1.5,2.91-2.91c.77-.75,1.56-1.47,2.36-2.18S32.6,48.67,33.46,48c.55-.46,1.1-.91,1.66-1.35l.1-.07c.66-.52,1.33-1,2-1.54.39-.29.78-.58,1.18-.86.62-.45,1.25-.9,1.89-1.33s1.4-1,2.11-1.41,1.16-.75,1.75-1.11l1.34-.82c.57-.34,1.14-.68,1.71-1,.85-.49,1.68-1,2.51-1.41l2.45-1.28C58.16,32.75,63.39,30.78,65.84,30.29Z"/><path class="cls-2" d="M152.58,69.66A11.27,11.27,0,0,1,147,71.08a7.7,7.7,0,0,1-5.82-2.29,8.39,8.39,0,0,1-2.21-6.09,8.65,8.65,0,0,1,2.44-6.34,8.37,8.37,0,0,1,6.25-2.48,10.81,10.81,0,0,1,4.57.86v2.32a8.74,8.74,0,0,0-4.76-1.26,5.9,5.9,0,0,0-4.48,1.86,6.8,6.8,0,0,0-1.76,4.9,6.86,6.86,0,0,0,1.62,4.86,5.69,5.69,0,0,0,4.38,1.74,6.63,6.63,0,0,0,3.24-.73v-4.5h-3.61V62h5.77Z"/><path class="cls-2" d="M165.73,70.8H157V54.16h2.15V68.9h6.63Z"/><path class="cls-2" d="M190.15,70.8V54.16H195a5.53,5.53,0,0,1,3.51,1A3.4,3.4,0,0,1,199.85,58a4,4,0,0,1-.78,2.43,4.18,4.18,0,0,1-2.15,1.49v0a4.22,4.22,0,0,1,2.72,1.29,3.93,3.93,0,0,1,1,2.76,4.35,4.35,0,0,1-1.54,3.48,5.86,5.86,0,0,1-4,1.33ZM192.29,56v5.21h2a3.65,3.65,0,0,0,2.44-.76,2.63,2.63,0,0,0,.89-2.1c0-1.57-1.05-2.35-3.14-2.35Zm0,7.08v5.8h2.58a3.93,3.93,0,0,0,2.61-.78A2.7,2.7,0,0,0,198.4,66c0-1.9-1.3-2.85-3.88-2.85Z"/><path class="cls-2" d="M217.62,70.8h-2.38l-1.69-4.56h-6.93L205,70.8h-2.38L209,54.16h2.3Zm-4.74-6.44-2.51-6.92a7,7,0,0,1-.26-1.16h-.06a5.82,5.82,0,0,1-.26,1.16l-2.5,6.92Z"/><path class="cls-2" d="M229.39,70.8h-8.77V54.16h2.15V68.9h6.62Z"/><path class="cls-2" d="M174,61.72h2.08V62c-.44.36-.89.7-1.35,1l-1.24.88c0-.72,0-1.43,0-2.15Z"/><path class="cls-2" d="M176.73,59.19h2.71v.25l-1.17.88c-.52.4-1,.79-1.55,1.17Z"/><path class="cls-2" d="M176.11,62.7a.08.08,0,0,1,0,0c0,.17,0,.34,0,.51v1.13a22.5,22.5,0,0,1-9.34,3.54h0s1.16-.4,1.31-.46c.77-.3,1.53-.64,2.27-1a28.32,28.32,0,0,0,3.43-2.06l.86-.59C175.15,63.44,175.62,63.07,176.11,62.7Z"/><path class="cls-2" d="M185.61,55.27a1,1,0,0,1,.12.36c0,.12.07.24.1.35a2.37,2.37,0,0,1,.09.36c0,.12.06.24.08.36l.06.37c0,.12,0,.24.05.36s0,.25,0,.37,0,.25,0,.37,0,.25,0,.37a2.35,2.35,0,0,1,0,.26,2538489077109.71,2538489077109.71,0,0,1,0,.54c0,.09,0,.17,0,.26l0,.27a1.09,1.09,0,0,1,0,.26l0,.27c0,.09,0,.17,0,.26s0,.18-.05.26l-.06.26-.06.26a2.5,2.5,0,0,1-.07.26c0,.09,0,.17-.07.26s-.05.17-.08.25l-.09.25-.09.25-.1.25-.1.24c0,.09-.08.17-.11.25l-.12.24-.12.23c0,.08-.09.16-.13.24s-.09.15-.14.23l-.13.22-.15.23-.15.22-.16.21a1.77,1.77,0,0,1-.16.22l-.16.2-.17.21-.18.2-.18.19c-.07.07-.13.14-.2.2,0-.76,0-1.52,0-2.28a7.52,7.52,0,0,1,.5-.62,2169639053899.62,2169639053899.62,0,0,1,.26-.34,1.09,1.09,0,0,0,.13-.17l.12-.18.12-.18a1.74,1.74,0,0,0,.11-.18,1.74,1.74,0,0,0,.11-.18,1.18,1.18,0,0,0,.11-.19,1.62,1.62,0,0,0,.1-.18l.1-.19c0-.07.07-.13.1-.2l.09-.19a1.67,1.67,0,0,0,.08-.2L185,61a1.19,1.19,0,0,1,.08-.2c0-.07,0-.14.07-.2s0-.14.07-.21l.06-.2a1.72,1.72,0,0,0,.07-.21c0-.06,0-.13.05-.2l.06-.21c0-.07,0-.14,0-.21s0-.14.05-.21a1.55,1.55,0,0,1,0-.21l0-.21,0-.21,0-.21c0-.08,0-.15,0-.22s0-.14,0-.21,0-.14,0-.22a1.48,1.48,0,0,1,0-.21v-.21a10.7,10.7,0,0,0-.08-1.39C185.67,55.67,185.63,55.47,185.61,55.27Z"/><path class="cls-2" d="M180,56.52h2.67c0,.67,0,1.33,0,2v4.43c0,1.08,0,2.17,0,3.25,0,.53,0,1.06,0,1.59,0,.28,0,.56,0,.84a1.56,1.56,0,0,1-.38.25.88.88,0,0,0,.25-.45,3.23,3.23,0,0,0,0-.44V64c0-.42,0-.81-.28-1.13a.86.86,0,0,0-.41-.24,3.47,3.47,0,0,0-.72,0h-1.13Z"/><path class="cls-2" d="M179.3,62.81h1.76a3.46,3.46,0,0,1,.79,0,.61.61,0,0,1,.33.19.75.75,0,0,1,.2.36,4.17,4.17,0,0,1,0,.5v4.19a.78.78,0,0,1-.24.66.93.93,0,0,1-.77.21h-2.12a4.58,4.58,0,0,1-.83,0,.63.63,0,0,1-.36-.19.75.75,0,0,1-.24-.58c0-1,0-2.11,0-3.16V64a5,5,0,0,1,0-.55.76.76,0,0,1,.22-.4,1,1,0,0,1,.79-.22Z"/><path class="cls-3" d="M181,64.92h.87v.85H181C181,65.49,181,65.2,181,64.92Z"/><path class="cls-3" d="M181.6,66.2h.28v.87H181V66.2Z"/><path class="cls-3" d="M178.41,66.2h.89v.85h-.89Z"/><path class="cls-3" d="M178.41,64.91h.89v.86h-.89Z"/><path class="cls-3" d="M181,67.47c.3,0,.59,0,.88,0v.87H181Z"/><path class="cls-3" d="M178.41,67.47h.89v.87h-.89Z"/><path class="cls-3" d="M179.71,64.91h.9v.86h-.9C179.7,65.48,179.71,65.2,179.71,64.91Z"/><path class="cls-3" d="M179.71,67.47h.9v.86h-.91Z"/><path class="cls-3" d="M180.52,66.2s.06,0,.09,0a7.75,7.75,0,0,1,0,.84h-.91a6,6,0,0,1,0-.85Z"/><path class="cls-3" d="M178.73,63.41c1,0,2.11,0,3.15,0v1.14H178.4V63.41Z"/><path class="cls-1" d="M176.89,53.28a5,5,0,0,1,.55,0l.41,0,.4,0,.41,0,.4.07.4.09.39.11.39.13.38.14.16.07.16.06.16.08.16.07.15.08.16.08.15.08.15.09.15.09.15.09.14.1.14.09.15.11.14.1.13.1.14.11.13.11.14.12.13.11.12.12.13.12.12.13.12.12.12.13.12.13.11.13.11.13a1.71,1.71,0,0,0,.11.14l.1.14.11.14.1.14.09.15a4.64,4.64,0,0,1,.49.83c-.23-.18-.44-.46-.66-.67a8.63,8.63,0,0,0-.77-.71,10.34,10.34,0,0,0-.84-.64,8.85,8.85,0,0,0-6.53-1.49l-.2,0-.2,0-.2,0-.2.06-.2.06-.2.06-.2.07-.19.07-.19.08-.19.08-.19.09-.19.1-.18.09-.18.1-.18.11-.17.11-.18.12-.17.12-.16.12-.17.13-.16.13-.16.13-.15.14-.15.15-.15.14-.14.15-.14.16s-.09.1-.13.16a12041850597527.18,12041850597527.18,0,0,1-.26.32l-.13.17a1,1,0,0,0-.11.17,5.59,5.59,0,0,0-.41.66,6.59,6.59,0,0,0-.34.71l-.06.14a.78.78,0,0,0-.05.14l-.06.15a.58.58,0,0,1-.05.14c0,.05,0,.1,0,.15l0,.15s0,.1,0,.15,0,.1,0,.15l0,.15a.83.83,0,0,0,0,.15l0,.15s0,.1,0,.15l0,.16a.77.77,0,0,1,0,.15c0,.05,0,.1,0,.15s0,.1,0,.16,0,.1,0,.15,0,.1,0,.15v.16a.76.76,0,0,0,0,.15v.16s0,.1,0,.15v.16a.76.76,0,0,1,0,.15s0,.1,0,.15,0,.11,0,.16,0,.1,0,.15,0,.1,0,.15l0,.16a.77.77,0,0,1,0,.15.83.83,0,0,0,0,.15l0,.15a9.13,9.13,0,0,0,.44,1.34,17.22,17.22,0,0,1-1.58.73,9.69,9.69,0,0,1-.82-3.36,1.77,1.77,0,0,0,0-.23v-.46a1909497117839.38,1909497117839.38,0,0,0,0-.46c0-.07,0-.15,0-.22s0-.16,0-.23l0-.23a1.85,1.85,0,0,1,0-.23,1.7,1.7,0,0,1,0-.22c0-.08,0-.15,0-.23a1.74,1.74,0,0,0,.05-.22l.06-.22.06-.22c0-.08.05-.15.07-.22s0-.15.07-.22a1.43,1.43,0,0,0,.08-.22l.09-.21a1.89,1.89,0,0,1,.09-.21l.09-.21a2,2,0,0,1,.1-.21c0-.07.07-.13.1-.2s.07-.14.11-.2l.12-.2a2,2,0,0,1,.11-.2l.13-.19a1.27,1.27,0,0,1,.13-.19,2.14,2.14,0,0,1,.13-.19l.14-.18.14-.18.14-.18a1.29,1.29,0,0,1,.16-.17l.15-.17.16-.17.17-.16c0-.06.11-.11.16-.16l.18-.16.17-.15.18-.14.18-.15.19-.13.19-.13.19-.13.2-.12.2-.12.2-.11.21-.11a1.24,1.24,0,0,1,.2-.1l.21-.1.22-.09.21-.09.22-.08.22-.07.22-.07.22-.07.22-.06.23,0,.22-.05.23,0,.23,0a.91.91,0,0,1,.23,0l.23,0,.23,0Z"/><path class="cls-1" d="M186.45,59.47a3.85,3.85,0,0,1,.27.81,9,9,0,0,1-.12,5,9.77,9.77,0,0,1-4.66,5.66c-.26.14-.54.27-.81.39s-.56.22-.85.31l-.18.06-.17,0-.18,0-.18,0-.18,0-.18,0-.18,0-.18,0-.19,0-.18,0-.18,0h-.19l-.18,0h-1.29l-.18,0-.18,0-.18,0-.19,0-.18,0-.18,0-.18,0-.18,0-.18,0-.17,0-.18,0-.18,0-.15-.05-.15,0-.14,0-.15-.06-.15-.06-.14-.06-.14-.06-.15-.07-.14-.06A.61.61,0,0,0,173,71l-.14-.08-.13-.07-.14-.08-.14-.08-.13-.08-.13-.08-.13-.09-.13-.09-.13-.09-.13-.09-.12-.1-.12-.1-.13-.1a.52.52,0,0,1-.11-.1l-.12-.1-.12-.11-.11-.1-.12-.11a.57.57,0,0,0-.11-.11l-.11-.12-.1-.11-.11-.12c-.17-.19-.33-.38-.48-.58s-.18-.26-.28-.38a23.79,23.79,0,0,0,2.35-.75l.62-.24.39-.17v2c.2.13.4.27.61.39,0-.89,0-1.79,0-2.68.55-.27,1.08-.54,1.61-.84.19-.12.39-.23.58-.36s.27-.18.42-.25v3.62c0,.46,0,.92,0,1.37l.61,0V62.25c.88-.72,1.82-1.37,2.71-2.09,0,.81,0,1.63,0,2.44h-.57a1.19,1.19,0,0,0-1,.28,1,1,0,0,0-.29.77v4.21a3.23,3.23,0,0,0,0,.54.92.92,0,0,0,.27.49,1,1,0,0,0,.8.27h.67v1a3.07,3.07,0,0,0,.64-.18c0-.25,0-.51,0-.77h1.19a3.6,3.6,0,0,0,.57,0,1.19,1.19,0,0,0,.27-.07,3.06,3.06,0,0,0,.29-.21,1.56,1.56,0,0,0,.38-.25l.18-.14.18-.14.17-.15.17-.15.17-.15.16-.16c.06,0,.11-.11.16-.16l.16-.17.15-.17s.09-.11.14-.17l.14-.18.14-.18.14-.18.12-.19a1.27,1.27,0,0,0,.13-.19l.12-.19.11-.2.11-.19.11-.21.1-.2.09-.2.09-.21.09-.21c0-.07,0-.14.08-.22l.07-.21a1.42,1.42,0,0,0,.07-.22c0-.07.05-.14.07-.21a2.25,2.25,0,0,0,.05-.22l.06-.22c0-.08,0-.15,0-.22s0-.15,0-.23,0-.15,0-.22,0-.39.07-.59,0-.39.05-.58,0-.4,0-.59,0-.4,0-.59S186.48,59.71,186.45,59.47Z"/><rect class="cls-1" x="74.66" y="63.37" width="56.5" height="0.46"/><rect class="cls-1" x="234.66" y="63.37" width="61.04" height="0.46"/><path class="cls-1" d="M76.1,43.36V14.61H86.3c3.13,0,5.55.6,7.24,1.79a5.67,5.67,0,0,1,2.54,4.93,6,6,0,0,1-1.57,4.1,8.12,8.12,0,0,1-4,2.43v.08a8,8,0,0,1,4.85,2.22,6.34,6.34,0,0,1,1.84,4.66,7.66,7.66,0,0,1-2.78,6.23,11.56,11.56,0,0,1-7.61,2.31Zm6.12-24.18v7.11h2.92a5,5,0,0,0,3.3-1,3.43,3.43,0,0,0,1.2-2.8c0-2.2-1.6-3.3-4.82-3.3Zm0,11.73v7.88h3.64a5.61,5.61,0,0,0,3.63-1.07,3.68,3.68,0,0,0,1.31-3,3.38,3.38,0,0,0-1.3-2.82,6,6,0,0,0-3.7-1Z"/><path class="cls-1" d="M124.39,29.37a15.51,15.51,0,0,1,4-11,13.58,13.58,0,0,1,10.42-4.24,12.81,12.81,0,0,1,9.91,4.1,15,15,0,0,1,3.76,10.54,15.34,15.34,0,0,1-3.9,10.9,13.37,13.37,0,0,1-10.24,4.19,13.22,13.22,0,0,1-10-4.06A14.52,14.52,0,0,1,124.39,29.37Zm6.44-.34a11,11,0,0,0,2,6.86,6.57,6.57,0,0,0,5.54,2.66A6.74,6.74,0,0,0,144,36a10.85,10.85,0,0,0,2-6.86,11.57,11.57,0,0,0-1.95-7.09,6.45,6.45,0,0,0-5.49-2.61,6.78,6.78,0,0,0-5.67,2.67A11,11,0,0,0,130.83,29Z"/><path class="cls-1" d="M181.22,43.36h-7.76l-8.7-12.57a9.19,9.19,0,0,1-.76-1.5h-.09V43.36h-6.12V14.61h6.12V28.2H164a12.66,12.66,0,0,1,.82-1.54l8.24-12h7.31L170.09,28.33Z"/><path class="cls-1" d="M195.1,36.12A12,12,0,0,0,203,39a6.67,6.67,0,0,0,3.77-.87A2.58,2.58,0,0,0,208,35.92a3.18,3.18,0,0,0-1-2.21c-.67-.69-2.43-1.64-5.29-2.82Q195,28,195,22.57a7.24,7.24,0,0,1,3.06-6.22,13.41,13.41,0,0,1,8.08-2.22,19.92,19.92,0,0,1,7.07,1.1V21a11.78,11.78,0,0,0-6.78-2,6.93,6.93,0,0,0-3.62.83,2.51,2.51,0,0,0-1.35,2.22,2.88,2.88,0,0,0,.93,2.05A17.61,17.61,0,0,0,207,26.64c2.86,1.22,4.82,2.52,5.89,3.88a7.63,7.63,0,0,1,1.61,4.86,7.38,7.38,0,0,1-2.93,6.31c-2,1.44-4.74,2.17-8.34,2.17a17.84,17.84,0,0,1-8.09-1.6Z"/><path class="cls-1" d="M243,31Q243,43.86,231,43.86q-11.53,0-11.54-12.53V14.61h6.14V31.37q0,7.18,5.66,7.18t5.57-6.92v-17H243Z"/><path class="cls-1" d="M273.48,43.36h-7.05l-4.51-7.48a11,11,0,0,0-2.28-3,3.12,3.12,0,0,0-1.89-.67h-1.86V43.36h-6.12V14.61h10.08q10.26,0,10.26,7.8a7.67,7.67,0,0,1-1.72,5,9.17,9.17,0,0,1-4.72,2.95v.07q2,.67,4.4,4.38ZM255.89,19.27v8.28h3a4.77,4.77,0,0,0,3.46-1.26,4.14,4.14,0,0,0,1.31-3.12q0-3.9-4.66-3.9Z"/><path class="cls-1" d="M293.81,43.36h-17V14.61h16.35v5H282.92V26.4h9.5v5h-9.5v7h10.89Z"/><path class="cls-4" d="M128.34,30.24a5.85,5.85,0,0,0-.16,1,14.27,14.27,0,0,1-3,6.81c-.09.11-.15.13-.27.06a17.28,17.28,0,0,0-3.55-1.41c-.14,0-.16-.1-.12-.24a25.76,25.76,0,0,0,.84-4.44,17.55,17.55,0,0,0,.13-2.17c0-.23.05-.3.29-.3h5.84Z"/><path class="cls-4" d="M128.34,28.57h-5.9c-.15,0-.23,0-.23-.2a25.75,25.75,0,0,0-1-6.65c-.06-.21,0-.25.17-.3a16.79,16.79,0,0,0,3.44-1.37c.17-.09.24-.06.36.08A14.36,14.36,0,0,1,127.76,25a12.23,12.23,0,0,1,.53,2.81c0,.05.05.09.05.14Z"/><path class="cls-4" d="M102.86,29.58h2.85c.17,0,.24,0,.24.22a26,26,0,0,0,1,6.62c.06.21,0,.27-.18.32a16.21,16.21,0,0,0-3.41,1.37c-.18.1-.26,0-.38-.1a14.33,14.33,0,0,1-2.53-4.85,14.69,14.69,0,0,1-.58-3.36c0-.21.06-.23.23-.22Z"/><path class="cls-4" d="M102.87,28.57c-.93,0-1.87,0-2.81,0-.22,0-.25-.06-.24-.26A14.41,14.41,0,0,1,103,20.08a.18.18,0,0,1,.27-.06,17,17,0,0,0,3.52,1.41c.15,0,.19.09.14.27a26.51,26.51,0,0,0-.9,5.08c0,.52-.06,1-.06,1.57,0,.18-.06.22-.24.22C104.77,28.56,103.82,28.57,102.87,28.57Z"/><path class="cls-4" d="M110.28,29.58h3.06c.2,0,.24.06.24.25,0,1.9,0,3.8,0,5.69,0,.2-.06.25-.25.26a24.52,24.52,0,0,0-5.12.6c-.19.05-.27,0-.33-.21a25.94,25.94,0,0,1-.93-6.31c0-.22,0-.28.27-.28C108.24,29.59,109.26,29.58,110.28,29.58Z"/><path class="cls-4" d="M117.9,29.58c1,0,2,0,3.06,0,.22,0,.26.06.25.27a26,26,0,0,1-.94,6.39c-.06.19-.16.18-.29.15a24.59,24.59,0,0,0-2.81-.47,18.21,18.21,0,0,0-2.33-.14c-.21,0-.26-.07-.26-.27q0-2.84,0-5.67c0-.21,0-.26.26-.26Z"/><path class="cls-4" d="M110.26,28.57c-1,0-2.06,0-3.09,0-.18,0-.23,0-.22-.23a25.82,25.82,0,0,1,1-6.42c0-.13.08-.18.23-.15a29.17,29.17,0,0,0,4,.59c.43,0,.87,0,1.3.05.16,0,.2.06.2.21,0,1.92,0,3.83,0,5.75,0,.19-.08.2-.23.2Z"/><path class="cls-4" d="M117.87,28.57c-1,0-2,0-3,0-.18,0-.25,0-.25-.23,0-1.9,0-3.8,0-5.69,0-.18,0-.24.23-.24a26.43,26.43,0,0,0,5.23-.64c.14,0,.19,0,.22.15a25.57,25.57,0,0,1,.84,4.59c.06.61.1,1.22.11,1.84,0,.18,0,.22-.22.22C120,28.56,118.91,28.57,117.87,28.57Z"/><path class="cls-4" d="M108.27,20.77a11.74,11.74,0,0,1,2.9-4.75,4.65,4.65,0,0,1,2.14-1.17c.19,0,.27,0,.27.2q0,3.06,0,6.12c0,.16,0,.25-.22.24A27.47,27.47,0,0,1,108.27,20.77Z"/><path class="cls-4" d="M114.58,18.09c0-1,0-2,0-3,0-.22,0-.29.27-.23a5.21,5.21,0,0,1,2.71,1.74,12.78,12.78,0,0,1,2.28,4.05c.06.15,0,.15-.11.17a24.55,24.55,0,0,1-3.3.49c-.53,0-1.07.06-1.61.11-.2,0-.24-.05-.24-.24C114.59,20.14,114.58,19.12,114.58,18.09Z"/><path class="cls-4" d="M113.55,43.35a5.16,5.16,0,0,1-3.08-1.93,13,13,0,0,1-2.14-3.87c-.06-.16,0-.18.12-.21a26.21,26.21,0,0,1,4.91-.57c.14,0,.22,0,.22.17,0,2.11,0,4.23,0,6.34A.25.25,0,0,1,113.55,43.35Z"/><path class="cls-4" d="M114.58,43.35V43c0-2,0-4,0-5.92,0-.27,0-.35.33-.35a28.74,28.74,0,0,1,4.8.58c.1,0,.19,0,.13.19a11.8,11.8,0,0,1-2.83,4.6A4.58,4.58,0,0,1,114.58,43.35Z"/><path class="cls-4" d="M110.48,42.9a13.91,13.91,0,0,1-6.7-3.92,18,18,0,0,1,3.34-1.31c.18-.05.19,0,.23.17A12.52,12.52,0,0,0,108.94,41,14.58,14.58,0,0,0,110.48,42.9Z"/><path class="cls-4" d="M117.73,15.28a13.87,13.87,0,0,1,6.65,3.89,11.89,11.89,0,0,1-1.75.79c-.5.2-1,.36-1.52.51-.18.06-.25,0-.31-.15a12.65,12.65,0,0,0-2-3.83C118.43,16.08,118.07,15.69,117.73,15.28Z"/><path class="cls-4" d="M110.46,15.29a15.78,15.78,0,0,0-1.25,1.46,12,12,0,0,0-1.82,3.47c-.08.27-.18.3-.44.22a18.69,18.69,0,0,1-3-1.15c-.17-.08-.22-.12-.06-.29a14.35,14.35,0,0,1,6.27-3.69A.33.33,0,0,1,110.46,15.29Z"/><path class="cls-4" d="M124.38,39a14.07,14.07,0,0,1-6.7,3.92A17.59,17.59,0,0,0,119,41.36a13,13,0,0,0,1.82-3.51c0-.12,0-.23.23-.18A17.32,17.32,0,0,1,124.38,39Z"/><rect class="cls-3" x="123.91" y="28.69" width="4.93" height="0.72"/></svg>