<svg id="Layer_1" data-name="Layer 1" xmlns="http://www.w3.org/2000/svg" viewBox="0 0 296.94 67.96"><defs><style>.cls-1{fill:#293c8f;}.cls-2,.cls-3,.cls-5{fill:#cc952b;}.cls-3{font-size:22px;font-family:MicrosoftYaHeiUI-Bold, Microsoft YaHei UI;font-weight:700;letter-spacing:0.05em;}.cls-4{fill:#fff;}.cls-5{stroke:#fff;stroke-miterlimit:10;}</style></defs><path class="cls-1" d="M47.29,7.75H29.67l-4.45,0a3.82,3.82,0,0,0-4,3.13,7.62,7.62,0,0,0-.11,1.51V45.45c.67-.72,1.35-1.43,2-2.13V12.4a6.27,6.27,0,0,1,.05-1.06,1.6,1.6,0,0,1,1.54-1.46c.45,0,.9,0,1.35,0h21a2.24,2.24,0,0,1,2.4,2.38V23.82l2-1.08V12A4.31,4.31,0,0,0,47.29,7.75Zm2.24,27.19V47.87H34.8q-1,1.05-2,2.13h18.8V33.44C50.88,33.93,50.2,34.43,49.53,34.94Z"/><path class="cls-1" d="M25.51,13.45v7.77h21.6V13.45Zm11.73,5.88a4.1,4.1,0,0,1-1.06,0v-2.2l-.82,0a1.67,1.67,0,0,1,0-.77c.54-.05,1-.23,1.06-.84a3.73,3.73,0,0,1,.82,0Zm4.35,0H38.44a1.35,1.35,0,0,1,.35-1.05,3.85,3.85,0,0,1,.89-.72l.42-.27c.26-.16.46-.35.35-.7a.38.38,0,0,0-.43-.25c-.36,0-.48.26-.52.57a1.67,1.67,0,0,1,0,.18h-.88a1.31,1.31,0,0,1,1.09-1.61,2.47,2.47,0,0,1,.9,0,1.07,1.07,0,0,1,.93.77,1.34,1.34,0,0,1-.32,1.33c-.31.32-.73.48-1.05.83h1.44A3,3,0,0,1,41.59,19.34Zm3.49-.89a1.17,1.17,0,0,1-1,.91,2.2,2.2,0,0,1-1.41-.09A1.17,1.17,0,0,1,42,17.93a3.24,3.24,0,0,1,.88,0c.23.56.44.72.82.6s.34-.34.27-.6-.46-.18-.69-.22a1.52,1.52,0,0,1,0-.67c.25-.13.69.11.76-.36,0-.2-.11-.3-.29-.34a.56.56,0,0,0-.72.44,3.31,3.31,0,0,1-.89,0c-.07-.85.68-1.43,1.67-1.31.8.1,1.23.51,1.21,1.14a.88.88,0,0,1-.4.69A1,1,0,0,1,45.08,18.45Z"/><path class="cls-1" d="M25.53,26.89V24.3h9.54v2.59Z"/><polygon class="cls-1" points="47.11 25.17 47.11 24.3 37.57 24.3 37.57 26.9 44.17 26.9 47.11 25.17"/><path class="cls-1" d="M41.09,41.87v2.89H38C39,43.78,40,42.82,41.09,41.87Z"/><path class="cls-1" d="M29.48,35v2.47c-.61.51-1.2,1-1.79,1.56h-2V35Z"/><path class="cls-1" d="M32.48,35l-1.12.9V35Z"/><path class="cls-1" d="M47,36.88V39H44.38C45.25,38.3,46.13,37.58,47,36.88Z"/><path class="cls-1" d="M43.21,44.74v-4H47v4Z"/><path class="cls-1" d="M25.65,29.25h3.81v4H25.65Z"/><rect class="cls-1" x="31.35" y="29.25" width="3.82" height="4.02"/><path class="cls-1" d="M40.44,29.25c-1.07.71-2.13,1.43-3.17,2.16V29.25Z"/><path class="cls-2" d="M57.44,0V19.88c-.95.44-1.92.89-2.89,1.37V2.9H17.81V49.12q-1.44,1.7-2.82,3.46l-.07-.08v-40H7.66V46.86c-1-.64-1.94-1.22-2.89-1.77V9.61H14.92V0Z"/><path class="cls-1" d="M57.44,29.39v29H47.3V68H18.72c.63-1,1.28-1.94,1.94-2.9H44.4V58.35H25.59c.77-1,1.55-2,2.34-2.9H54.55V31.32C55.5,30.66,56.47,30,57.44,29.39Z"/><path class="cls-2" d="M64.67,22a133.5,133.5,0,0,0-13.59,8c-.82.55-1.63,1.12-2.43,1.69s-1.68,1.2-2.5,1.82c-.58.42-1.14.86-1.71,1.3s-1.32,1-2,1.57l-.19.15c-.62.5-1.24,1-1.85,1.54l-1.25,1.08c-.63.55-1.25,1.11-1.86,1.67l-.89.83c-.54.49-1.07,1-1.59,1.51l-.62.61C33.6,44.4,33,45,32.39,45.64l-1.05,1.1c-.85.91-1.69,1.82-2.51,2.76-.54.62-1.08,1.24-1.61,1.87q-2,2.34-3.81,4.79-.94,1.26-1.86,2.55c-1.36,1.9-2.66,3.86-3.92,5.88-.52.83-1,1.68-1.53,2.53H16c-.44-.83-.9-1.64-1.37-2.44A69.08,69.08,0,0,0,9.25,56.9c-.84-1.06-1.7-2.1-2.58-3.11-1.69-2-3.46-3.85-5.27-5.7,1.76.81,3.49,1.67,5.17,2.62.86.48,1.7,1,2.53,1.53a37.18,37.18,0,0,1,6.38,5.19c.11.1.21.21.31.32.68-1,1.38-2,2.09-2.93q1.32-1.77,2.71-3.44c.56-.68,1.12-1.34,1.7-2,.72-.83,1.46-1.64,2.21-2.43.95-1,1.92-2,2.91-2.91.77-.74,1.56-1.47,2.36-2.18s1.66-1.46,2.52-2.16c.55-.46,1.1-.9,1.66-1.34l.1-.08c.66-.52,1.33-1,2-1.54.39-.29.78-.58,1.18-.86.62-.45,1.25-.89,1.89-1.33s1.4-1,2.11-1.41S42.4,32.4,43,32l1.34-.82c.57-.34,1.14-.68,1.71-1,.85-.49,1.68-.95,2.52-1.4s1.64-.88,2.44-1.28C57,24.49,62.22,22.52,64.67,22Z"/><text class="cls-3" transform="translate(133.82 63.55)"><tspan xml:space="preserve">GL   BAL</tspan></text><path class="cls-2" d="M172.52,53.55h2.28v.27c-.48.39-1,.76-1.48,1.12s-.9.63-1.35,1c0-.79,0-1.57,0-2.35Z"/><path class="cls-2" d="M175.46,50.79h3v.27c-.42.33-.85.64-1.28,1l-1.68,1.28Z"/><path class="cls-2" d="M174.79,54.62l0,.05c0,.18,0,.37,0,.55,0,.41,0,.82,0,1.24a24.74,24.74,0,0,1-10.2,3.87h0s1.27-.44,1.42-.5c.85-.33,1.67-.69,2.48-1.1a31.54,31.54,0,0,0,3.75-2.25c.32-.21.63-.42.94-.65C173.73,55.43,174.26,55,174.79,54.62Z"/><path class="cls-2" d="M185.17,46.5a1.45,1.45,0,0,1,.13.4c0,.12.08.25.11.38s.07.26.1.4.06.26.08.39,0,.26.07.4,0,.26.05.4,0,.26,0,.4,0,.27,0,.4,0,.27,0,.4,0,.2,0,.29,0,.2,0,.3,0,.19,0,.29,0,.19,0,.29,0,.19,0,.29l0,.29c0,.09,0,.19,0,.29s0,.19,0,.28a2.93,2.93,0,0,1-.05.29l-.06.28c0,.1,0,.19-.07.29s-.05.19-.07.28-.06.19-.08.28l-.09.28c0,.09-.06.18-.1.27s-.06.18-.1.27-.07.18-.11.27-.07.18-.11.27l-.12.27c0,.08-.08.17-.13.26s-.09.17-.13.26l-.14.25-.15.25-.15.25-.16.25-.16.24-.17.23-.18.24-.18.22-.19.23-.19.21a2.09,2.09,0,0,1-.2.22l-.21.21q0-1.24,0-2.49a5.94,5.94,0,0,1,.55-.67l.15-.19.14-.18.14-.19.13-.2.13-.19.12-.2.13-.2c0-.07.07-.14.11-.2a2024679964949.81,2024679964949.81,0,0,0,.22-.42l.11-.21.09-.21a2,2,0,0,0,.1-.21l.09-.22.09-.22c0-.07,0-.14.08-.22s.05-.14.07-.22a1.87,1.87,0,0,0,.07-.22,1.87,1.87,0,0,0,.07-.22l.06-.23.06-.23a1.74,1.74,0,0,0,.05-.22c0-.08,0-.16,0-.23a1880513140441.74,1880513140441.74,0,0,1,.08-.46,2,2,0,0,1,0-.24c0-.07,0-.15,0-.23l0-.23a1.94,1.94,0,0,1,0-.24c0-.07,0-.15,0-.23s0-.15,0-.23v-.24c0-.5,0-1-.08-1.52C185.23,46.94,185.19,46.72,185.17,46.5Z"/><path class="cls-2" d="M179.09,47.86H182c0,.73,0,1.46,0,2.18v4.84c0,1.18,0,2.37,0,3.56v1.73c0,.3,0,.61,0,.92a1.58,1.58,0,0,1-.42.27,1.05,1.05,0,0,0,.28-.49,3.85,3.85,0,0,0,0-.48V56c0-.46,0-.88-.31-1.24a1,1,0,0,0-.45-.25,3.38,3.38,0,0,0-.78,0h-1.24Z"/><path class="cls-2" d="M178.27,54.74h1.93a4,4,0,0,1,.85,0,.66.66,0,0,1,.37.21.71.71,0,0,1,.21.39,3.41,3.41,0,0,1,0,.55v4.57a.86.86,0,0,1-.26.73,1.08,1.08,0,0,1-.85.23h-2.31a5.51,5.51,0,0,1-.91,0,.76.76,0,0,1-.4-.2.86.86,0,0,1-.25-.65c0-1.14,0-2.3,0-3.44V56a4,4,0,0,1,0-.6.85.85,0,0,1,.23-.44,1.13,1.13,0,0,1,.87-.24Z"/><path class="cls-4" d="M180.13,57h1V58h-1C180.12,57.67,180.12,57.35,180.13,57Z"/><path class="cls-4" d="M180.79,58.44h.3v.94h-1v-1Z"/><path class="cls-4" d="M177.3,58.44h1v.94h-1Z"/><path class="cls-4" d="M177.3,57h1V58h-1Z"/><path class="cls-4" d="M180.12,59.83h1v1h-1Z"/><path class="cls-4" d="M177.3,59.83h1v1h-1Z"/><path class="cls-4" d="M178.72,57h1V58h-1C178.71,57.66,178.72,57.35,178.72,57Z"/><path class="cls-4" d="M178.72,59.83h1v1h-1Z"/><path class="cls-4" d="M179.61,58.44a.15.15,0,0,1,.09,0,7,7,0,0,1,0,.92h-1a7.21,7.21,0,0,1,0-.93Z"/><path class="cls-4" d="M177.65,55.4c1.13,0,2.3,0,3.44,0v1.24h-3.8V55.4Z"/><path class="cls-1" d="M175.64,44.33c.2,0,.4,0,.6,0l.45,0,.44,0,.44.06.44.08.43.09.43.12.43.14.42.16.17.07.18.07.17.08.17.08.17.09.17.09.16.09.17.09.16.1.16.1.16.11.16.1.15.11.16.12.15.11.15.12.14.12.15.12a.86.86,0,0,0,.14.13l.14.13.13.13.14.14.13.13.13.14.13.15.12.14.12.15.12.15.11.15.12.15c0,.05.07.1.1.16l.11.15a6.41,6.41,0,0,1,.54.91,7.1,7.1,0,0,1-.72-.73c-.27-.27-.56-.53-.85-.78s-.6-.47-.91-.69a9.64,9.64,0,0,0-7.14-1.63l-.22,0-.22.05-.22,0-.22.06-.22.07-.21.07-.22.07-.21.08-.21.09-.21.09-.2.1-.2.1-.21.1-.19.12-.2.11-.19.12-.19.13-.18.13-.19.13-.18.14-.17.15-.17.14-.17.16-.16.15-.16.16-.16.17-.15.17-.15.17-.14.17-.14.18-.14.19-.13.18a7.85,7.85,0,0,0-.44.73,7.76,7.76,0,0,0-.37.77,1,1,0,0,0-.07.15l-.06.16-.06.16a1,1,0,0,1,0,.16,1,1,0,0,0-.05.16s0,.11-.05.16,0,.11,0,.16a1,1,0,0,1,0,.17.94.94,0,0,1,0,.16l0,.17,0,.16,0,.17,0,.17s0,.11,0,.16,0,.12,0,.17,0,.11,0,.17,0,.11,0,.17,0,.11,0,.17v.16a1,1,0,0,0,0,.17v.17c0,.06,0,.11,0,.17V55c0,.06,0,.11,0,.17a1,1,0,0,0,0,.17,22.94,22.94,0,0,1,0,.33,1,1,0,0,0,0,.17l0,.17,0,.16,0,.17s0,.11,0,.16a10,10,0,0,0,.48,1.46,17.73,17.73,0,0,1-1.72.8,10.31,10.31,0,0,1-.9-3.67c0-.08,0-.16,0-.25v-.75c0-.08,0-.17,0-.25a2.11,2.11,0,0,1,0-.25c0-.08,0-.17,0-.25a2.17,2.17,0,0,1,0-.25l0-.25c0-.08,0-.16.05-.24a2.21,2.21,0,0,1,0-.25l.06-.24.06-.25a2473035600035.93,2473035600035.93,0,0,0,.14-.48l.08-.23.09-.24a2.18,2.18,0,0,1,.09-.23l.09-.23c0-.08.07-.16.11-.23s.07-.15.1-.23l.12-.22.12-.22.12-.22.13-.21.14-.22.14-.2.14-.21.15-.2.16-.19.16-.2c0-.06.11-.12.16-.19l.17-.18.18-.19.18-.17.18-.18.19-.17.19-.16a1.56,1.56,0,0,1,.2-.16l.2-.16.2-.15.21-.14.21-.14.21-.13.22-.13.22-.12.23-.12.22-.11.23-.11.23-.1.24-.09.24-.09.23-.08.25-.08.24-.07.24-.06.25-.06.25-.05.24,0,.25,0,.26,0,.25,0,.25,0Z"/><path class="cls-1" d="M186.08,51.09a4.66,4.66,0,0,1,.3.89,9.72,9.72,0,0,1-.13,5.45,10.66,10.66,0,0,1-5.09,6.18c-.29.15-.59.3-.89.42s-.61.25-.93.35l-.19.06-.19,0-.2.05-.19,0-.2,0-.2,0-.2,0-.19,0-.2,0-.2,0-.2,0-.2,0h-1.61l-.2,0-.2,0-.2,0-.2,0-.2,0-.19,0-.2,0-.2,0-.19,0-.2,0-.19,0-.19-.06-.16-.05-.17-.06-.16-.06-.16-.06-.16-.06L172,64l-.15-.07-.16-.07-.15-.07-.16-.08-.15-.08-.15-.08-.15-.09-.14-.08-.15-.09-.14-.1-.15-.09-.14-.1-.14-.1-.14-.1-.13-.1-.14-.11-.13-.11-.13-.11-.13-.11-.13-.12-.12-.11-.13-.12-.12-.12-.12-.13-.11-.12-.12-.13c-.18-.21-.36-.42-.52-.64s-.2-.28-.31-.41a25.59,25.59,0,0,0,2.57-.82c.23-.08.45-.17.68-.27s.28-.13.42-.18v2.2c.22.14.44.3.67.43,0-1,0-2,0-2.94.59-.29,1.18-.58,1.75-.92.22-.12.43-.25.64-.38a4.34,4.34,0,0,1,.46-.28v4c0,.5,0,1,0,1.49.22,0,.44.05.67.06V54.13c1-.79,2-1.5,3-2.29,0,.89,0,1.78,0,2.67h-.63a1.33,1.33,0,0,0-1.05.31,1.09,1.09,0,0,0-.32.84v4.6a3.88,3.88,0,0,0,0,.59,1,1,0,0,0,.29.53,1.1,1.1,0,0,0,.88.3h.72v1a3.9,3.9,0,0,0,.7-.2c0-.28,0-.56,0-.84h1.31a4.44,4.44,0,0,0,.63,0,1,1,0,0,0,.28-.08,2.35,2.35,0,0,0,.32-.23,1.58,1.58,0,0,0,.42-.27l.2-.15.19-.16.19-.16.19-.16.18-.17.18-.17.17-.18.17-.18c.05-.06.11-.12.16-.19a14937239658263.26,14937239658263.26,0,0,0,.32-.38l.15-.2a3199625960560,3199625960560,0,0,0,.28-.4l.14-.21.13-.21a2.39,2.39,0,0,1,.13-.21l.12-.22.11-.22c0-.07.07-.15.11-.22a2.29,2.29,0,0,0,.1-.23,2.14,2.14,0,0,0,.1-.22c0-.08.07-.16.1-.23s.05-.16.08-.23a2.25,2.25,0,0,0,.08-.24c0-.08.06-.16.08-.23s.05-.16.07-.24l.06-.24a2.1,2.1,0,0,0,.06-.24l.06-.24c0-.09,0-.17,0-.25a2,2,0,0,0,0-.24c0-.21.07-.43.09-.64s0-.43,0-.64,0-.43,0-.65,0-.43,0-.64A7.36,7.36,0,0,0,186.08,51.09Z"/><rect class="cls-1" x="74.87" y="55.19" width="51.13" height="0.5"/><rect class="cls-1" x="241.34" y="55.19" width="52.55" height="0.5"/><path class="cls-1" d="M75.79,35.08V6.34H86c3.13,0,5.55.6,7.24,1.78a5.7,5.7,0,0,1,2.54,4.94,6,6,0,0,1-1.57,4.1,8.11,8.11,0,0,1-4,2.43v.08a7.93,7.93,0,0,1,4.86,2.22,6.34,6.34,0,0,1,1.84,4.66,7.64,7.64,0,0,1-2.78,6.22,11.56,11.56,0,0,1-7.61,2.31Zm6.12-24.17V18h2.92a5,5,0,0,0,3.3-1,3.45,3.45,0,0,0,1.2-2.8c0-2.2-1.6-3.3-4.82-3.3Zm0,11.72v7.89h3.64a5.55,5.55,0,0,0,3.63-1.08,3.64,3.64,0,0,0,1.3-3,3.34,3.34,0,0,0-1.29-2.82,6,6,0,0,0-3.7-1Z"/><path class="cls-1" d="M124.09,21.09a15.49,15.49,0,0,1,3.94-11,13.54,13.54,0,0,1,10.42-4.24,12.81,12.81,0,0,1,9.91,4.1,15,15,0,0,1,3.76,10.54,15.34,15.34,0,0,1-3.9,10.9,14.53,14.53,0,0,1-20.28.13A14.52,14.52,0,0,1,124.09,21.09Zm6.43-.33a11,11,0,0,0,2,6.86,6.57,6.57,0,0,0,5.54,2.66,6.74,6.74,0,0,0,5.61-2.55,10.85,10.85,0,0,0,2-6.86,11.62,11.62,0,0,0-1.95-7.1,6.47,6.47,0,0,0-5.49-2.6,6.78,6.78,0,0,0-5.67,2.67A11,11,0,0,0,130.52,20.76Z"/><path class="cls-1" d="M180.91,35.08h-7.75l-8.71-12.56a9.19,9.19,0,0,1-.76-1.5h-.09V35.08h-6.12V6.34h6.12V19.93h.09a13.66,13.66,0,0,1,.82-1.55l8.24-12h7.31L169.78,20.05Z"/><path class="cls-1" d="M194.79,27.85a12,12,0,0,0,7.89,2.87,6.7,6.7,0,0,0,3.77-.86,2.58,2.58,0,0,0,1.26-2.22,3.16,3.16,0,0,0-1-2.2q-1-1.05-5.29-2.83-6.73-2.85-6.74-8.31a7.24,7.24,0,0,1,3.06-6.22,13.41,13.41,0,0,1,8.08-2.22A20.16,20.16,0,0,1,212.89,7v5.76a11.78,11.78,0,0,0-6.78-2,6.93,6.93,0,0,0-3.62.83,2.49,2.49,0,0,0-1.35,2.21,2.86,2.86,0,0,0,.93,2.05,17.24,17.24,0,0,0,4.58,2.54q4.29,1.83,5.89,3.87a7.65,7.65,0,0,1,1.61,4.86,7.37,7.37,0,0,1-2.93,6.31q-2.94,2.18-8.34,2.18a18,18,0,0,1-8.09-1.6Z"/><path class="cls-1" d="M242.66,22.73q0,12.86-11.95,12.86-11.53,0-11.54-12.53V6.34h6.14V23.1q0,7.17,5.66,7.18t5.57-6.92v-17h6.12Z"/><path class="cls-1" d="M273.17,35.08h-7.05l-4.51-7.47a10.83,10.83,0,0,0-2.28-3,3.06,3.06,0,0,0-1.89-.67h-1.86V35.08h-6.12V6.34h10.08q10.26,0,10.26,7.8a7.68,7.68,0,0,1-1.72,5,9,9,0,0,1-4.72,2.95v.08q2,.66,4.4,4.38ZM255.58,11v8.27h3A4.78,4.78,0,0,0,262.05,18a4.14,4.14,0,0,0,1.31-3.12q0-3.9-4.66-3.9Z"/><path class="cls-1" d="M293.5,35.08h-17V6.34h16.35v5H282.61v6.77h9.5v5h-9.5v7H293.5Z"/><path class="cls-5" d="M128,22a5.85,5.85,0,0,0-.16,1,14.32,14.32,0,0,1-3,6.81c-.09.11-.15.13-.27.06a17.28,17.28,0,0,0-3.55-1.41c-.14,0-.16-.1-.12-.24a25.76,25.76,0,0,0,.84-4.44,17.67,17.67,0,0,0,.13-2.17c0-.23,0-.3.29-.3H128Z"/><path class="cls-5" d="M128,20.29h-5.9c-.15,0-.23,0-.23-.2a25.75,25.75,0,0,0-1-6.65c-.06-.21,0-.26.17-.3a16.28,16.28,0,0,0,3.44-1.38c.17-.08.24,0,.36.09a14.27,14.27,0,0,1,2.54,4.87,12.23,12.23,0,0,1,.53,2.81c0,.05,0,.09,0,.14Z"/><path class="cls-5" d="M102.56,21.31h2.84c.17,0,.24,0,.24.23a26,26,0,0,0,1,6.62c.06.21,0,.26-.18.32A16.21,16.21,0,0,0,103,29.84c-.18.09-.26.05-.38-.1a14.33,14.33,0,0,1-2.53-4.85,14.77,14.77,0,0,1-.58-3.37c0-.2.07-.22.23-.22Z"/><path class="cls-5" d="M102.56,20.3c-.93,0-1.87,0-2.81,0-.22,0-.25-.06-.24-.26a14.41,14.41,0,0,1,3.16-8.23.18.18,0,0,1,.27-.06,17,17,0,0,0,3.52,1.41c.15,0,.19.09.14.27a26.51,26.51,0,0,0-.9,5.08c0,.52,0,1-.06,1.56,0,.19-.06.23-.24.23C104.46,20.29,103.51,20.3,102.56,20.3Z"/><path class="cls-5" d="M110,21.31H113c.2,0,.24.06.24.25,0,1.9,0,3.8,0,5.69,0,.2-.06.25-.25.25a25.22,25.22,0,0,0-5.12.61c-.19,0-.27,0-.33-.21a26,26,0,0,1-.93-6.32c0-.22,0-.27.27-.27Z"/><path class="cls-5" d="M117.59,21.31h3.06c.22,0,.26.06.25.26A26.05,26.05,0,0,1,120,28c0,.19-.16.17-.29.14a27,27,0,0,0-2.81-.46,20.25,20.25,0,0,0-2.33-.15c-.21,0-.26-.06-.26-.27,0-1.88,0-3.77,0-5.66,0-.21,0-.26.26-.26Z"/><path class="cls-5" d="M110,20.3c-1,0-2.06,0-3.09,0-.18,0-.23,0-.22-.23a25.82,25.82,0,0,1,1-6.42c0-.14.08-.19.23-.15a27.66,27.66,0,0,0,4,.58c.43,0,.87.05,1.3.06.16,0,.2,0,.2.21,0,1.91,0,3.83,0,5.75,0,.19-.07.2-.23.2C112,20.29,111,20.3,110,20.3Z"/><path class="cls-5" d="M117.56,20.3c-1,0-2,0-3,0-.18,0-.25,0-.25-.23q0-2.85,0-5.7c0-.18,0-.23.23-.23a28,28,0,0,0,5.23-.64c.14,0,.19,0,.22.15a25.41,25.41,0,0,1,.84,4.59c.06.61.1,1.22.11,1.83,0,.19-.05.23-.22.23C119.64,20.29,118.6,20.3,117.56,20.3Z"/><path class="cls-5" d="M108,12.5a11.74,11.74,0,0,1,2.9-4.75A4.61,4.61,0,0,1,113,6.58c.19,0,.27,0,.27.2,0,2,0,4.08,0,6.12,0,.16,0,.24-.22.24A27.58,27.58,0,0,1,108,12.5Z"/><path class="cls-5" d="M114.27,9.82c0-1,0-2,0-3,0-.22,0-.29.27-.23a5.21,5.21,0,0,1,2.71,1.74,12.67,12.67,0,0,1,2.28,4c.06.15,0,.14-.11.17a24.55,24.55,0,0,1-3.3.49l-1.61.1c-.2,0-.24,0-.24-.24C114.28,11.87,114.27,10.85,114.27,9.82Z"/><path class="cls-5" d="M113.24,35.08a5.16,5.16,0,0,1-3.08-1.93A13,13,0,0,1,108,29.28c-.06-.16,0-.19.12-.21a27.09,27.09,0,0,1,4.91-.58c.14,0,.22,0,.22.18,0,2.11,0,4.23,0,6.34A.41.41,0,0,1,113.24,35.08Z"/><path class="cls-5" d="M114.27,35.08v-.33c0-2,0-3.94,0-5.92,0-.26,0-.35.33-.34a27.73,27.73,0,0,1,4.8.58c.1,0,.19,0,.13.19a11.69,11.69,0,0,1-2.83,4.59A4.53,4.53,0,0,1,114.27,35.08Z"/><path class="cls-5" d="M110.17,34.63a13.91,13.91,0,0,1-6.7-3.92,16.66,16.66,0,0,1,3.34-1.31c.18,0,.19.05.23.17a13,13,0,0,0,1.59,3.19A14.58,14.58,0,0,0,110.17,34.63Z"/><path class="cls-5" d="M117.42,7a13.87,13.87,0,0,1,6.65,3.89,14.43,14.43,0,0,1-1.75.79c-.5.19-1,.36-1.52.51-.18.05-.25,0-.31-.16a12.71,12.71,0,0,0-2-3.82C118.12,7.8,117.76,7.41,117.42,7Z"/><path class="cls-5" d="M110.15,7a17.08,17.08,0,0,0-1.25,1.45A12.44,12.44,0,0,0,107.08,12c-.08.27-.18.3-.44.22a19.7,19.7,0,0,1-3-1.15c-.17-.08-.22-.13-.06-.29A14.37,14.37,0,0,1,109.89,7,.38.38,0,0,1,110.15,7Z"/><path class="cls-5" d="M124.07,30.71a14,14,0,0,1-6.7,3.93,19.18,19.18,0,0,0,1.31-1.55,12.94,12.94,0,0,0,1.82-3.52c0-.12,0-.22.23-.17A17.28,17.28,0,0,1,124.07,30.71Z"/><rect class="cls-5" x="123.82" y="20.3" width="4.21" height="0.85"/></svg>