<svg id="Layer_1" data-name="Layer 1" xmlns="http://www.w3.org/2000/svg" viewBox="0 0 305.87 84.77"><defs><style>.cls-1{fill:#fff;}.cls-2,.cls-3{fill:#cc952b;}.cls-3{stroke:#283d8f;stroke-miterlimit:10;}.cls-4{fill:#283d8f;}</style></defs><path class="cls-1" d="M52.26,16.15H30.19a3.78,3.78,0,0,0-4,3.12,7,7,0,0,0-.12,1.52V53.85c.67-.72,1.36-1.43,2.05-2.12V20.81a6.34,6.34,0,0,1,.05-1.07,1.59,1.59,0,0,1,1.54-1.45,12.18,12.18,0,0,1,1.35,0h21a2.23,2.23,0,0,1,2.4,2.38V32.23q1-.55,2-1.08V20.41A4.31,4.31,0,0,0,52.26,16.15Zm2.24,27.2V56.28H39.77q-1,1-2,2.13h18.8V41.84C55.85,42.34,55.17,42.84,54.5,43.35Z"/><path class="cls-1" d="M30.49,21.86v7.77H52.08V21.86Zm11.73,5.88a5.36,5.36,0,0,1-1.07,0v-2.2l-.82,0a1.82,1.82,0,0,1,0-.77c.54-.05,1-.23,1.07-.83a3.18,3.18,0,0,1,.82,0Zm4.34,0H43.41a1.36,1.36,0,0,1,.35-1.05,3.9,3.9,0,0,1,.89-.73l.42-.26c.26-.17.46-.36.35-.7s-.24-.26-.43-.26c-.36,0-.47.26-.52.57a.9.9,0,0,1,0,.19h-.88a1.3,1.3,0,0,1,1.09-1.61,2.47,2.47,0,0,1,.9,0,1.09,1.09,0,0,1,.93.77A1.36,1.36,0,0,1,46.14,26c-.31.32-.73.47-1,.83h1.44A3,3,0,0,1,46.56,27.75Zm3.49-.9a1.15,1.15,0,0,1-1,.91,2.14,2.14,0,0,1-1.41-.09A1.17,1.17,0,0,1,47,26.33a3.24,3.24,0,0,1,.88,0c.24.56.44.71.82.6s.34-.35.27-.61-.46-.17-.69-.22a1.51,1.51,0,0,1,0-.67c.25-.13.69.11.76-.36,0-.2-.11-.3-.29-.34a.56.56,0,0,0-.72.44,3.78,3.78,0,0,1-.89,0c-.07-.86.68-1.44,1.67-1.32.8.1,1.23.51,1.21,1.14a.9.9,0,0,1-.4.7A1,1,0,0,1,50.05,26.85Z"/><path class="cls-1" d="M30.5,35.3V32.7H40v2.6Z"/><polygon class="cls-1" points="52.08 33.57 52.08 32.7 42.54 32.7 42.54 35.3 49.14 35.3 52.08 33.57"/><path class="cls-1" d="M46.06,50.27v2.9H42.92C44,52.18,45,51.22,46.06,50.27Z"/><path class="cls-1" d="M34.45,43.39v2.47c-.6.52-1.2,1-1.79,1.56h-2v-4Z"/><path class="cls-1" d="M37.46,43.39c-.38.3-.76.6-1.13.91v-.91Z"/><path class="cls-1" d="M52,45.28v2.15H49.35C50.22,46.7,51.1,46,52,45.28Z"/><path class="cls-1" d="M48.18,53.14v-4H52v4Z"/><path class="cls-1" d="M30.62,37.65h3.81v4H30.62Z"/><rect class="cls-1" x="36.32" y="37.66" width="3.82" height="4.02"/><path class="cls-1" d="M45.41,37.66c-1.07.7-2.13,1.42-3.17,2.16V37.66Z"/><path class="cls-2" d="M62.41,8.4V28.29c-.95.43-1.92.89-2.89,1.36V11.3H22.78V57.53c-1,1.12-1.9,2.28-2.82,3.45l-.07-.07v-40H12.63V55.26c-1-.63-1.94-1.22-2.89-1.76V18H19.89V8.4Z"/><path class="cls-1" d="M62.41,37.8v29H52.27v9.61H23.69c.64-1,1.28-1.94,1.94-2.89H49.37V66.75H30.56c.77-1,1.55-2,2.34-2.9H59.52V39.72C60.47,39.07,61.44,38.43,62.41,37.8Z"/><path class="cls-2" d="M69.64,30.44a130.94,130.94,0,0,0-13.59,8q-1.23.82-2.43,1.68c-.84.6-1.68,1.2-2.5,1.82l-1.71,1.3c-.66.52-1.32,1-2,1.57l-.19.15c-.62.51-1.24,1-1.85,1.54-.42.36-.84.72-1.25,1.09-.63.54-1.25,1.1-1.86,1.66l-.89.83c-.54.5-1.06,1-1.59,1.51l-.62.61c-.62.61-1.23,1.23-1.83,1.85l-1,1.11c-.85.9-1.69,1.82-2.51,2.75-.54.62-1.08,1.25-1.61,1.88q-2,2.32-3.81,4.79c-.63.83-1.25,1.68-1.86,2.54Q24.5,70,22.6,73c-.52.84-1,1.68-1.53,2.53H21c-.44-.83-.9-1.65-1.37-2.44a69.21,69.21,0,0,0-5.36-7.79c-.84-1.06-1.7-2.09-2.58-3.11-1.69-2-3.46-3.84-5.27-5.7,1.77.81,3.5,1.67,5.17,2.62.86.48,1.7,1,2.53,1.53a37.18,37.18,0,0,1,6.38,5.19l.32.32c.68-1,1.37-2,2.08-2.92q1.32-1.77,2.71-3.45c.56-.67,1.12-1.34,1.7-2,.72-.82,1.46-1.63,2.22-2.42.94-1,1.91-2,2.9-2.92.77-.74,1.56-1.47,2.36-2.17s1.67-1.46,2.52-2.17c.55-.45,1.1-.9,1.66-1.34l.1-.08q1-.78,2-1.53c.39-.3.79-.58,1.18-.87q.93-.67,1.89-1.32c.7-.48,1.4-1,2.12-1.42L48,40.44c.45-.27.89-.55,1.34-.81s1.15-.68,1.71-1c.85-.48,1.69-.95,2.52-1.4s1.64-.87,2.44-1.28C62,32.89,67.19,30.92,69.64,30.44Z"/><path class="cls-2" d="M156.38,69.8a11.14,11.14,0,0,1-5.63,1.42,7.73,7.73,0,0,1-5.82-2.28,8.42,8.42,0,0,1-2.21-6.1,8.7,8.7,0,0,1,2.44-6.34A8.41,8.41,0,0,1,151.41,54a11,11,0,0,1,4.57.86V57.2A8.82,8.82,0,0,0,151.22,56a5.94,5.94,0,0,0-4.48,1.85A6.86,6.86,0,0,0,145,62.7a6.87,6.87,0,0,0,1.62,4.87A5.69,5.69,0,0,0,151,69.31a6.63,6.63,0,0,0,3.24-.73v-4.5h-3.61v-1.9h5.77Z"/><path class="cls-2" d="M169.53,70.94h-8.78V54.3h2.15V69h6.63Z"/><path class="cls-2" d="M194,70.94V54.3h4.88a5.46,5.46,0,0,1,3.51,1.05,3.39,3.39,0,0,1,1.31,2.78,4,4,0,0,1-.78,2.42,4.21,4.21,0,0,1-2.14,1.5v0a4.26,4.26,0,0,1,2.71,1.28,3.89,3.89,0,0,1,1,2.77,4.38,4.38,0,0,1-1.54,3.48A5.86,5.86,0,0,1,199,70.94Zm2.15-14.76v5.21h2a3.65,3.65,0,0,0,2.44-.75,2.6,2.6,0,0,0,.89-2.1c0-1.57-1-2.36-3.14-2.36Zm0,7.08v5.8h2.57a3.91,3.91,0,0,0,2.61-.78,2.69,2.69,0,0,0,.92-2.16c0-1.91-1.3-2.86-3.88-2.86Z"/><path class="cls-2" d="M221.42,70.94H219l-1.69-4.55h-6.93l-1.6,4.55h-2.38l6.34-16.64h2.3Zm-4.74-6.43-2.51-6.92a7.24,7.24,0,0,1-.26-1.16h0a6.49,6.49,0,0,1-.27,1.16l-2.49,6.92Z"/><path class="cls-2" d="M233.2,70.94h-8.78V54.3h2.15V69h6.63Z"/><path class="cls-2" d="M177.84,61.87h2.08v.25c-.44.36-.89.7-1.35,1l-1.23.87c0-.71,0-1.43,0-2.14Z"/><path class="cls-2" d="M180.53,59.34h2.71v.25l-1.17.88-1.55,1.17Z"/><path class="cls-2" d="M179.91,62.85s0,0,0,0,0,.34,0,.5v1.14a22.58,22.58,0,0,1-9.34,3.54h0l1.31-.45c.77-.3,1.53-.64,2.27-1a29.67,29.67,0,0,0,3.43-2.06l.86-.59C179,63.59,179.43,63.21,179.91,62.85Z"/><path class="cls-2" d="M189.41,55.41a1.35,1.35,0,0,1,.13.37c0,.11.06.23.1.35s.06.24.08.36.06.24.08.36l.06.36c0,.13,0,.25,0,.37s0,.24,0,.37,0,.24,0,.37,0,.24,0,.36v.54a2.26,2.26,0,0,0,0,.26c0,.09,0,.18,0,.27a2.46,2.46,0,0,0,0,.26l0,.27c0,.09,0,.18,0,.26s0,.18,0,.27,0,.17-.05.26l-.06.26-.06.26c0,.08,0,.17-.07.26a2.33,2.33,0,0,1-.07.25,2.58,2.58,0,0,1-.08.26l-.09.25-.09.25-.1.25-.1.24a2.56,2.56,0,0,0-.11.24l-.12.24-.12.24-.13.23-.13.23c0,.08-.1.15-.14.23l-.15.22-.15.22-.15.22-.17.21-.16.21c-.06.07-.11.14-.17.2l-.18.2-.18.2a1.89,1.89,0,0,1-.2.2c0-.76,0-1.52,0-2.28a7.52,7.52,0,0,1,.5-.62l.14-.17.12-.17.13-.17.12-.18.12-.18.12-.18a1.74,1.74,0,0,1,.11-.18c0-.07.07-.13.1-.19l.11-.19.09-.19a1.74,1.74,0,0,0,.1-.19l.09-.19.09-.2a1.67,1.67,0,0,1,.08-.2c0-.06,0-.13.08-.2s.05-.13.07-.2.05-.13.07-.2a1.18,1.18,0,0,1,.07-.2l.06-.21a1.6,1.6,0,0,0,0-.21l.06-.2c0-.07,0-.14,0-.21s0-.14,0-.21,0-.14,0-.21l0-.21,0-.22,0-.21c0-.07,0-.14,0-.21s0-.14,0-.22,0-.14,0-.21,0-.14,0-.21V57.4A12.94,12.94,0,0,0,189.5,56C189.47,55.81,189.43,55.61,189.41,55.41Z"/><path class="cls-2" d="M183.85,56.66h2.66c0,.66,0,1.33,0,2v4.42c0,1.09,0,2.17,0,3.26,0,.53,0,1.06,0,1.58,0,.28,0,.57,0,.85a1.84,1.84,0,0,1-.39.25.92.92,0,0,0,.25-.45,2.26,2.26,0,0,0,0-.45v-4c0-.43.05-.81-.28-1.14a.88.88,0,0,0-.41-.23,3.45,3.45,0,0,0-.72,0h-1.13Z"/><path class="cls-2" d="M183.1,63h1.77a4.07,4.07,0,0,1,.78,0,.61.61,0,0,1,.33.19.86.86,0,0,1,.2.36,2.9,2.9,0,0,1,0,.51v4.18a.77.77,0,0,1-.24.67,1,1,0,0,1-.77.21h-2.12a4.58,4.58,0,0,1-.83,0,.62.62,0,0,1-.36-.18.81.81,0,0,1-.24-.59c0-1,0-2.1,0-3.15v-1a5,5,0,0,1,0-.55.83.83,0,0,1,.22-.4,1,1,0,0,1,.79-.22Z"/><path class="cls-1" d="M184.8,65.06h.88v.86h-.88C184.79,65.63,184.79,65.35,184.8,65.06Z"/><path class="cls-1" d="M185.4,66.34h.28v.86h-.88v-.87Z"/><path class="cls-1" d="M182.21,66.34h.89v.85h-.89Z"/><path class="cls-1" d="M182.21,65.06c.3,0,.6,0,.89,0v.86h-.89Z"/><path class="cls-1" d="M184.8,67.61h.88v.86h-.88Z"/><path class="cls-1" d="M182.22,67.62h.88v.87h-.9Z"/><path class="cls-1" d="M183.51,65.06c.3,0,.6,0,.9,0v.85h-.9C183.5,65.63,183.51,65.34,183.51,65.06Z"/><path class="cls-1" d="M183.51,67.62h.9v.87h-.9Z"/><path class="cls-1" d="M184.32,66.34a.13.13,0,0,1,.09,0,7.72,7.72,0,0,1,0,.84h-.82a.15.15,0,0,1-.09,0,8,8,0,0,1,0-.85Z"/><path class="cls-1" d="M182.53,63.56c1,0,2.11,0,3.15,0v1.14H182.2V63.56Z"/><path class="cls-1" d="M180.69,53.42c.18,0,.37,0,.55,0h.41l.41,0,.4.05.4.07.4.09.39.11.39.12c.13.05.26.09.38.15l.16.06.16.07.16.07.16.08.15.07.16.09.15.08.15.09.15.09.15.09.14.09.15.1.14.1.14.1.14.11.13.11.14.11.13.11.13.12.12.12.13.12.12.12.12.13.12.12.12.13a1.34,1.34,0,0,0,.11.14l.11.13.11.14.1.14a1.71,1.71,0,0,1,.11.14l.1.14.09.14a4.64,4.64,0,0,1,.49.83,6.89,6.89,0,0,1-.65-.67c-.25-.24-.51-.48-.78-.71s-.55-.43-.84-.64a8.79,8.79,0,0,0-6.52-1.48l-.21,0-.2,0-.2,0-.2.05-.2.06-.2.07-.19.07-.2.07-.19.08-.19.08-.19.09-.18.09-.19.1-.18.1-.18.11-.17.11-.18.11-.17.12-.16.13-.17.12-.16.13-.15.14-.16.14-.15.14-.14.15-.15.15-.14.15c0,.06-.09.11-.13.16a1.83,1.83,0,0,0-.13.16l-.13.17-.12.16-.12.17c-.15.22-.28.44-.41.67s-.24.46-.34.7l-.06.14a.88.88,0,0,0,0,.15l-.06.14a.88.88,0,0,1-.05.15c0,.05,0,.1,0,.15s0,.1-.05.15,0,.09,0,.14a.83.83,0,0,1,0,.15l0,.15a.83.83,0,0,1,0,.15,1,1,0,0,0,0,.16l0,.15a.77.77,0,0,0,0,.15l0,.15c0,.06,0,.11,0,.16s0,.1,0,.15,0,.1,0,.16,0,.1,0,.15v.15c0,.06,0,.11,0,.16a.76.76,0,0,0,0,.15V63a.76.76,0,0,0,0,.15.92.92,0,0,0,0,.16.76.76,0,0,0,0,.15s0,.1,0,.15a.88.88,0,0,1,0,.16.77.77,0,0,1,0,.15l0,.15,0,.15,0,.16,0,.15a9.13,9.13,0,0,0,.44,1.34c-.49.24-1.07.54-1.58.73a9.8,9.8,0,0,1-.82-3.36v-.23a1.77,1.77,0,0,1,0-.23v-.23c0-.08,0-.15,0-.23s0-.15,0-.23,0-.15,0-.23,0-.15,0-.23l0-.22c0-.08,0-.15,0-.23a1.85,1.85,0,0,1,0-.23c0-.07,0-.15,0-.22l.06-.22a1.89,1.89,0,0,1,0-.23l.06-.22a1.42,1.42,0,0,0,.07-.22l.08-.21c0-.08,0-.15.07-.22l.09-.21.09-.21.09-.21.1-.21.1-.21a1.28,1.28,0,0,0,.11-.2l.12-.2.12-.19.12-.2.13-.19.13-.18.14-.19.14-.18.15-.17.15-.18.15-.17.16-.16.17-.17.16-.16.18-.15.17-.15.18-.15.19-.14.18-.14.19-.13.19-.13.2-.12.2-.12.2-.11.21-.1.21-.11.21-.09.21-.1.21-.08L178,54l.22-.08.22-.07.22-.06.22-.06.23,0,.23,0,.22,0,.23,0,.23,0,.23,0,.23,0Z"/><path class="cls-1" d="M190.25,59.62a4.3,4.3,0,0,1,.28.81,8.92,8.92,0,0,1-.13,5,9.68,9.68,0,0,1-4.66,5.65q-.39.21-.81.39a8.71,8.71,0,0,1-.85.32l-.18,0-.17,0-.18.05-.18,0-.18,0-.18,0-.18,0-.18,0-.18,0-.19,0h-.18l-.18,0h-1.47l-.19,0-.18,0-.18,0-.18,0-.19,0-.18,0-.18,0L179,72l-.18,0-.17,0-.18-.05-.18,0-.15,0-.14,0-.15-.06-.15,0-.14-.06-.15-.06-.14-.06-.14-.07-.15-.07-.14-.07-.13-.07-.14-.08-.14-.07-.13-.08-.14-.08L176,70.7l-.13-.09-.13-.08-.13-.1-.12-.09-.13-.09-.12-.1-.12-.1L175,70l-.12-.1-.12-.11-.11-.11a.57.57,0,0,1-.11-.11l-.12-.11-.1-.11-.11-.11-.11-.12-.48-.58-.27-.38a24.47,24.47,0,0,0,2.34-.75l.63-.25c.12,0,.25-.12.38-.16v2c.2.13.4.27.61.39,0-.89,0-1.79,0-2.69.54-.27,1.07-.53,1.6-.84l.58-.35.42-.26v3.63c0,.46,0,.91,0,1.37l.61.05V62.4c.88-.72,1.83-1.38,2.71-2.1,0,.82,0,1.63,0,2.45h-.57a1.18,1.18,0,0,0-1,.27,1,1,0,0,0-.29.78V68a3.13,3.13,0,0,0,0,.53,1,1,0,0,0,.27.5,1,1,0,0,0,.81.26h.66v1a3.83,3.83,0,0,0,.64-.18c0-.26,0-.52,0-.77.4,0,.79,0,1.19,0a5.61,5.61,0,0,0,.58,0,.87.87,0,0,0,.26-.08l.29-.2a1.84,1.84,0,0,0,.39-.25l.18-.14.17-.14.18-.15.17-.15.16-.15.16-.16.16-.17.16-.16.15-.17.14-.17.15-.18.13-.18.14-.19.13-.18.12-.19.12-.19a1673656702802.36,1673656702802.36,0,0,0,.22-.4l.11-.2c0-.07.07-.13.1-.2l.09-.21.09-.21.09-.21.08-.21c0-.07.05-.14.07-.21s.05-.15.07-.22a1.42,1.42,0,0,0,.07-.22l.06-.22c0-.07,0-.14,0-.22s0-.14.05-.22,0-.15,0-.22,0-.15,0-.22.05-.39.08-.59,0-.39,0-.59,0-.39,0-.59,0-.39,0-.59S190.28,59.86,190.25,59.62Z"/><rect class="cls-2" x="78.46" y="63.52" width="56.5" height="0.46"/><rect class="cls-2" x="238.46" y="63.52" width="61.04" height="0.46"/><path class="cls-1" d="M79.9,43.5V14.76H90.11q4.69,0,7.23,1.78a5.7,5.7,0,0,1,2.54,4.94,6,6,0,0,1-1.57,4.1,8.23,8.23,0,0,1-4,2.43v.07a8,8,0,0,1,4.85,2.23A6.35,6.35,0,0,1,101,35a7.65,7.65,0,0,1-2.79,6.22,11.55,11.55,0,0,1-7.61,2.31ZM86,19.33v7.1h2.92a5,5,0,0,0,3.3-1,3.46,3.46,0,0,0,1.21-2.8q0-3.3-4.83-3.3Zm0,11.72v7.89h3.64a5.53,5.53,0,0,0,3.63-1.08,3.66,3.66,0,0,0,1.31-3,3.38,3.38,0,0,0-1.3-2.82,6,6,0,0,0-3.69-1Z"/><path class="cls-1" d="M128.2,29.51a15.48,15.48,0,0,1,3.94-11,13.54,13.54,0,0,1,10.42-4.24,12.85,12.85,0,0,1,9.92,4.1,15,15,0,0,1,3.75,10.54,15.34,15.34,0,0,1-3.9,10.9A13.36,13.36,0,0,1,142.09,44a13.21,13.21,0,0,1-10-4A14.48,14.48,0,0,1,128.2,29.51Zm6.43-.33a11,11,0,0,0,2,6.85,6.57,6.57,0,0,0,5.54,2.67,6.74,6.74,0,0,0,5.61-2.55,10.87,10.87,0,0,0,2-6.86,11.62,11.62,0,0,0-1.95-7.1,6.44,6.44,0,0,0-5.49-2.61,6.79,6.79,0,0,0-5.67,2.68A11,11,0,0,0,134.63,29.18Z"/><path class="cls-1" d="M185,43.5h-7.75l-8.71-12.56a9.19,9.19,0,0,1-.76-1.5h-.09V43.5h-6.12V14.76h6.12V28.34h.09a16.41,16.41,0,0,1,.82-1.54l8.24-12h7.31L173.89,28.47Z"/><path class="cls-1" d="M198.91,36.27a12,12,0,0,0,7.88,2.87,6.76,6.76,0,0,0,3.77-.86,2.61,2.61,0,0,0,1.26-2.22,3.16,3.16,0,0,0-1-2.21q-1-1-5.29-2.82-6.74-2.85-6.74-8.31a7.23,7.23,0,0,1,3.06-6.22,13.43,13.43,0,0,1,8.08-2.22A19.9,19.9,0,0,1,217,15.37v5.76a11.71,11.71,0,0,0-6.78-2,6.87,6.87,0,0,0-3.61.82,2.5,2.5,0,0,0-1.36,2.22,2.86,2.86,0,0,0,.93,2.05,17.19,17.19,0,0,0,4.58,2.53q4.29,1.84,5.89,3.88a7.63,7.63,0,0,1,1.61,4.86,7.38,7.38,0,0,1-2.93,6.31c-2,1.45-4.73,2.17-8.33,2.17a17.92,17.92,0,0,1-8.09-1.59Z"/><path class="cls-1" d="M246.77,31.14q0,12.87-12,12.86-11.53,0-11.54-12.52V14.76h6.14V31.52q0,7.17,5.66,7.18t5.57-6.92v-17h6.12Z"/><path class="cls-1" d="M277.29,43.5h-7.05L265.73,36a11.08,11.08,0,0,0-2.29-3,3.06,3.06,0,0,0-1.89-.67H259.7V43.5h-6.13V14.76h10.08q10.26,0,10.26,7.79a7.66,7.66,0,0,1-1.72,5,9.11,9.11,0,0,1-4.72,3v.08q2,.66,4.4,4.38ZM259.7,19.42v8.27h3a4.76,4.76,0,0,0,3.46-1.25,4.12,4.12,0,0,0,1.31-3.13q0-3.89-4.66-3.89Z"/><path class="cls-1" d="M297.62,43.5h-17V14.76H297v5H286.72v6.77h9.5v5h-9.5v7h10.9Z"/><path class="cls-3" d="M132.14,30.39a5.85,5.85,0,0,0-.16,1,14.32,14.32,0,0,1-3,6.81.18.18,0,0,1-.27.06,16.74,16.74,0,0,0-3.55-1.41c-.14,0-.16-.1-.12-.24a26.88,26.88,0,0,0,.85-4.45A19.59,19.59,0,0,0,126,30c0-.22,0-.29.29-.29,1.84,0,3.69,0,5.54,0h.3Z"/><path class="cls-3" d="M132.14,28.71h-5.9c-.15,0-.23,0-.23-.21a25.31,25.31,0,0,0-1-6.64c-.06-.21,0-.26.17-.3a16.28,16.28,0,0,0,3.44-1.38c.17-.09.24-.06.36.09a14.27,14.27,0,0,1,2.54,4.87,12.13,12.13,0,0,1,.53,2.81c0,.05,0,.09,0,.14Z"/><path class="cls-3" d="M106.67,29.72c.94,0,1.89,0,2.84,0,.17,0,.24,0,.24.23a26.09,26.09,0,0,0,1,6.62c.05.21,0,.26-.18.32a16.3,16.3,0,0,0-3.42,1.37c-.18.09-.26.05-.38-.1a14.61,14.61,0,0,1-2.53-4.85,14.77,14.77,0,0,1-.58-3.37c0-.2.07-.22.23-.22C104.79,29.73,105.73,29.72,106.67,29.72Z"/><path class="cls-3" d="M106.68,28.71h-2.82c-.22,0-.25-.07-.24-.26a14.45,14.45,0,0,1,3.16-8.23.18.18,0,0,1,.27-.06,16.46,16.46,0,0,0,3.52,1.4c.15.05.19.1.15.27a26.77,26.77,0,0,0-.91,5.09c0,.52,0,1-.06,1.56,0,.19-.06.23-.23.23Z"/><path class="cls-3" d="M114.08,29.72c1,0,2,0,3.06,0,.2,0,.24.06.24.25,0,1.9,0,3.79,0,5.69,0,.2-.06.25-.25.25a24.62,24.62,0,0,0-5.12.61c-.19,0-.27,0-.33-.21a26,26,0,0,1-.93-6.32c0-.22,0-.27.27-.27C112,29.73,113.06,29.72,114.08,29.72Z"/><path class="cls-3" d="M121.7,29.72c1,0,2,0,3.06,0,.22,0,.26.06.26.26a26.7,26.7,0,0,1-1,6.4c0,.19-.15.17-.28.14a24.37,24.37,0,0,0-2.82-.46,20.25,20.25,0,0,0-2.33-.15c-.21,0-.26-.06-.26-.27,0-1.89,0-3.77,0-5.66,0-.21.05-.26.26-.26C119.66,29.73,120.68,29.72,121.7,29.72Z"/><path class="cls-3" d="M114.07,28.71H111c-.18,0-.24,0-.23-.23a26,26,0,0,1,1-6.43c0-.13.08-.18.23-.14a27.66,27.66,0,0,0,3.95.58c.43,0,.87.05,1.3.06.16,0,.2.05.2.2,0,1.92,0,3.84,0,5.76,0,.19-.07.2-.22.2Z"/><path class="cls-3" d="M121.67,28.71h-3c-.17,0-.25,0-.25-.23q0-2.85,0-5.7c0-.18.05-.23.23-.24a27.08,27.08,0,0,0,5.23-.63c.14,0,.19,0,.22.15a24.62,24.62,0,0,1,.84,4.58c.06.62.1,1.23.12,1.84,0,.19-.06.23-.23.23Z"/><path class="cls-3" d="M112.07,20.92a11.84,11.84,0,0,1,2.9-4.76A4.66,4.66,0,0,1,117.12,15c.19-.05.27-.05.26.2,0,2,0,4.08,0,6.12,0,.16,0,.24-.22.23A26.73,26.73,0,0,1,112.07,20.92Z"/><path class="cls-3" d="M118.38,18.24c0-1,0-2,0-3,0-.22,0-.28.27-.23a5.32,5.32,0,0,1,2.72,1.75,12.84,12.84,0,0,1,2.27,4.05c.06.15,0,.14-.11.16a23.07,23.07,0,0,1-3.3.5l-1.61.1c-.2,0-.24-.05-.24-.24C118.39,20.29,118.38,19.26,118.38,18.24Z"/><path class="cls-3" d="M117.36,43.5a5.15,5.15,0,0,1-3.09-1.93,13.2,13.2,0,0,1-2.14-3.87c-.06-.16,0-.19.13-.22a27,27,0,0,1,4.9-.57c.14,0,.22,0,.22.18,0,2.11,0,4.22,0,6.34A.26.26,0,0,1,117.36,43.5Z"/><path class="cls-3" d="M118.38,43.5v-.33c0-2,0-3.94,0-5.92,0-.26,0-.35.33-.34a26.68,26.68,0,0,1,4.8.58c.11,0,.19,0,.13.18a11.61,11.61,0,0,1-2.83,4.6A4.53,4.53,0,0,1,118.38,43.5Z"/><path class="cls-3" d="M114.28,43.05a13.91,13.91,0,0,1-6.7-3.92,17.32,17.32,0,0,1,3.34-1.32c.18-.05.19.06.23.17a13.1,13.1,0,0,0,1.59,3.2A14.58,14.58,0,0,0,114.28,43.05Z"/><path class="cls-3" d="M121.53,15.43a13.87,13.87,0,0,1,6.65,3.89,14.43,14.43,0,0,1-1.75.79c-.49.19-1,.35-1.52.51-.18.05-.25,0-.31-.16a12.38,12.38,0,0,0-2-3.82C122.23,16.22,121.88,15.83,121.53,15.43Z"/><path class="cls-3" d="M114.26,15.44A17.08,17.08,0,0,0,113,16.89a12.15,12.15,0,0,0-1.81,3.48c-.09.27-.18.3-.45.22a21.31,21.31,0,0,1-3-1.15c-.17-.09-.22-.13-.06-.29a14.37,14.37,0,0,1,6.27-3.7A.38.38,0,0,1,114.26,15.44Z"/><path class="cls-3" d="M128.18,39.13a14.08,14.08,0,0,1-6.7,3.93,19.18,19.18,0,0,0,1.31-1.55A12.94,12.94,0,0,0,124.61,38c0-.12,0-.22.23-.17A17.28,17.28,0,0,1,128.18,39.13Z"/><rect class="cls-4" x="127.71" y="28.83" width="4.93" height="0.72"/></svg>